<svg width="57" height="57" viewBox="0 0 57 57" fill="none" xmlns="http://www.w3.org/2000/svg">
<path fill-rule="evenodd" clip-rule="evenodd" d="M17.7294 2.53175C20.5153 2.4035 21.4035 2.375 28.5 2.375C35.5965 2.375 36.4848 2.40587 39.2683 2.53175C42.0518 2.65762 43.9517 3.10175 45.6142 3.74538C47.3551 4.40325 48.9345 5.43162 50.2407 6.76162C51.5707 8.0655 52.5968 9.6425 53.2523 11.3858C53.8983 13.0483 54.34 14.9483 54.4683 17.727C54.5965 20.5176 54.625 21.4059 54.625 28.5C54.625 35.5965 54.5941 36.4847 54.4683 39.2706C54.3424 42.0494 53.8983 43.9494 53.2523 45.6119C52.5967 47.3553 51.569 48.935 50.2407 50.2407C48.9345 51.5707 47.3551 52.5968 45.6142 53.2523C43.9517 53.8983 42.0517 54.34 39.273 54.4683C36.4847 54.5965 35.5965 54.625 28.5 54.625C21.4035 54.625 20.5153 54.5941 17.7294 54.4683C14.9506 54.3424 13.0506 53.8983 11.3881 53.2523C9.64469 52.5967 8.06507 51.569 6.75925 50.2407C5.43015 48.9361 4.40162 47.3572 3.74538 45.6142C3.10175 43.9517 2.66 42.0517 2.53175 39.273C2.4035 36.4824 2.375 35.5941 2.375 28.5C2.375 21.4035 2.40587 20.5153 2.53175 17.7318C2.65762 14.9483 3.10175 13.0483 3.74538 11.3858C4.40259 9.64269 5.43191 8.06387 6.76162 6.75925C8.0656 5.43044 9.64362 4.40193 11.3858 3.74538C13.0483 3.10175 14.9483 2.66 17.727 2.53175H17.7294ZM39.0569 7.23425C36.3019 7.10838 35.4754 7.08225 28.5 7.08225C21.5246 7.08225 20.6981 7.10838 17.9431 7.23425C15.3947 7.35063 14.0125 7.77575 13.091 8.13437C11.8726 8.60937 11.001 9.17225 10.0866 10.0866C9.21986 10.9299 8.5528 11.9564 8.13437 13.091C7.77575 14.0125 7.35063 15.3947 7.23425 17.9431C7.10838 20.6981 7.08225 21.5246 7.08225 28.5C7.08225 35.4754 7.10838 36.3019 7.23425 39.0569C7.35063 41.6052 7.77575 42.9875 8.13437 43.909C8.55237 45.0419 9.21975 46.0703 10.0866 46.9134C10.9298 47.7803 11.9581 48.4476 13.091 48.8656C14.0125 49.2243 15.3947 49.6494 17.9431 49.7658C20.6981 49.8916 21.5223 49.9177 28.5 49.9177C35.4777 49.9177 36.3019 49.8916 39.0569 49.7658C41.6052 49.6494 42.9875 49.2243 43.909 48.8656C45.1274 48.3906 45.999 47.8278 46.9134 46.9134C47.7803 46.0703 48.4476 45.0419 48.8656 43.909C49.2243 42.9875 49.6494 41.6052 49.7658 39.0569C49.8916 36.3019 49.9177 35.4754 49.9177 28.5C49.9177 21.5246 49.8916 20.6981 49.7658 17.9431C49.6494 15.3947 49.2243 14.0125 48.8656 13.091C48.3906 11.8726 47.8278 11.001 46.9134 10.0866C46.0701 9.21992 45.0435 8.55288 43.909 8.13437C42.9875 7.77575 41.6052 7.35063 39.0569 7.23425V7.23425ZM25.1631 36.5536C27.0267 37.3294 29.1018 37.4341 31.034 36.8498C32.9661 36.2656 34.6356 35.0287 35.7571 33.3503C36.8786 31.672 37.3826 29.6563 37.1831 27.6476C36.9836 25.6389 36.0929 23.7618 34.6631 22.3369C33.7517 21.426 32.6496 20.7286 31.4363 20.2947C30.223 19.8609 28.9285 19.7015 27.6462 19.828C26.3638 19.9544 25.1255 20.3637 24.0203 21.0262C22.9151 21.6887 21.9705 22.588 21.2546 23.6594C20.5387 24.7308 20.0692 25.9476 19.88 27.2222C19.6908 28.4968 19.7865 29.7974 20.1603 31.0306C20.5341 32.2638 21.1766 33.3987 22.0417 34.3537C22.9068 35.3087 23.9728 36.0601 25.1631 36.5536ZM19.0047 19.0047C20.2517 17.7578 21.732 16.7687 23.3612 16.0939C24.9904 15.419 26.7366 15.0717 28.5 15.0717C30.2634 15.0717 32.0096 15.419 33.6388 16.0939C35.268 16.7687 36.7483 17.7578 37.9953 19.0047C39.2422 20.2517 40.2313 21.732 40.9061 23.3612C41.581 24.9904 41.9283 26.7366 41.9283 28.5C41.9283 30.2634 41.581 32.0096 40.9061 33.6388C40.2313 35.268 39.2422 36.7483 37.9953 37.9953C35.477 40.5135 32.0614 41.9283 28.5 41.9283C24.9386 41.9283 21.523 40.5135 19.0047 37.9953C16.4865 35.477 15.0717 32.0614 15.0717 28.5C15.0717 24.9386 16.4865 21.523 19.0047 19.0047V19.0047ZM44.9065 17.0715C45.2155 16.78 45.4629 16.4295 45.634 16.0407C45.8051 15.6519 45.8964 15.2327 45.9026 14.808C45.9088 14.3832 45.8297 13.9616 45.67 13.5679C45.5103 13.1743 45.2733 12.8167 44.9729 12.5163C44.6725 12.216 44.315 11.9789 43.9213 11.8192C43.5277 11.6595 43.106 11.5804 42.6813 11.5866C42.2565 11.5928 41.8374 11.6842 41.4486 11.8553C41.0598 12.0264 40.7092 12.2738 40.4177 12.5827C39.8509 13.1837 39.5405 13.9819 39.5525 14.808C39.5646 15.634 39.8981 16.4228 40.4822 17.007C41.0664 17.5912 41.8552 17.9247 42.6813 17.9367C43.5073 17.9488 44.3056 17.6384 44.9065 17.0715V17.0715Z" fill="white"/>
</svg>
