<svg width="55" height="55" viewBox="0 0 55 55" fill="none" xmlns="http://www.w3.org/2000/svg">
<circle cx="27.5" cy="27.5" r="27.5" fill="white"/>
<path d="M43.1383 38.2136C42.8977 39.8773 39.5015 44.1926 37.9385 44.8182C37.4069 45.0313 36.8912 44.9786 36.4787 44.6624C36.2129 44.4561 35.9402 44.039 32.2781 38.0944L31.1896 36.323C30.7702 35.6882 30.8504 34.8517 31.3683 34.2146C31.8794 33.5959 32.6265 33.3667 33.275 33.6142C33.3117 33.6326 36.0135 34.524 36.0135 34.524C42.1735 36.5476 42.3729 36.6255 42.6387 36.8203C43.0283 37.1388 43.2094 37.6361 43.1292 38.2136H43.1383ZM30.7954 29.1707C30.36 28.5084 30.3669 27.7269 30.8183 27.1884L32.5279 24.8532C36.2908 19.7313 36.4971 19.4609 36.7515 19.2821C36.9723 19.1389 37.2279 19.0581 37.4909 19.0484C37.754 19.0388 38.0148 19.1005 38.2456 19.2271C39.7375 19.9513 42.751 24.4269 42.9321 26.1457V26.203C42.9645 26.4599 42.9263 26.7209 42.8218 26.9579C42.7172 27.1948 42.5502 27.3989 42.3385 27.5482C42.0567 27.7292 41.8 27.8346 34.7967 29.5328C33.6898 29.8146 33.0733 29.9682 32.7112 30.0988L32.7594 30.0461C32.0673 30.2546 31.2927 29.9201 30.855 29.228L30.7954 29.1707V29.1707ZM26.4985 26.5146C26.164 26.6201 25.1442 26.9386 23.8883 24.9059C23.8883 24.9059 15.4229 11.5844 15.2258 11.1742C15.1044 10.7136 15.251 10.1911 15.6612 9.76943C16.9217 8.46547 23.76 6.54964 25.5498 6.98506C26.1342 7.13631 26.5352 7.50527 26.675 8.02318C26.7781 8.5961 27.61 20.9619 27.7292 23.7303C27.846 26.0998 26.8308 26.4138 26.4985 26.5146V26.5146ZM27.6146 40.0653C27.5962 46.5438 27.5802 46.7615 27.4748 47.0686C27.2937 47.5521 26.879 47.8753 26.306 47.9807C24.656 48.2603 19.4952 46.3536 18.4204 45.0771C18.2244 44.8332 18.0999 44.5397 18.0606 44.2292C18.0308 44.023 18.0606 43.8167 18.1362 43.6357C18.2669 43.3011 18.4456 43.0421 23.0817 37.6086L24.4429 35.9907C24.9081 35.3948 25.7331 35.2161 26.5031 35.5232C27.2479 35.8074 27.7131 36.4513 27.6627 37.1457V40.0309L27.6146 40.0653V40.0653ZM13.5667 35.9219C13.0579 35.9082 12.6042 35.6011 12.3406 35.1015C12.1504 34.7303 12.0152 34.1207 11.9281 33.3782C11.6944 31.1461 11.9808 27.7773 12.6477 26.7071C12.964 26.2167 13.4223 25.9578 13.9287 25.9761C14.2633 25.9761 14.5612 26.0815 21.1865 28.8086L23.1298 29.5809C23.8219 29.8353 24.2504 30.5594 24.2115 31.3844C24.161 32.1819 23.6981 32.7961 23.0175 32.9794L20.2629 33.8548C14.1006 35.8348 13.8967 35.8898 13.5735 35.8646L13.5667 35.9219V35.9219ZM39.2792 48.1182H39.27L39.2631 48.1251L39.2792 48.1182Z" fill="#84A59D"/>
</svg>
